<svg id="Layer_1" data-name="Layer 1" xmlns="http://www.w3.org/2000/svg" xmlns:xlink="http://www.w3.org/1999/xlink" viewBox="0 0 1080 454"><defs><style>.cls-1{fill:none;}.cls-2{clip-path:url(#clip-path);}.cls-3{clip-path:url(#clip-path-2);}.cls-4{fill:#4d0400;}.cls-5,.cls-7{fill:red;}.cls-6,.cls-9{fill:#fff;}.cls-7,.cls-9{fill-rule:evenodd;}.cls-8{fill:#200094;}</style><clipPath id="clip-path"><rect class="cls-1" y="37" width="1080" height="378.71"/></clipPath><clipPath id="clip-path-2"><rect class="cls-1" y="37" width="1080" height="378.71"/></clipPath></defs><g id="Core_Brandflag_3D"><g class="cls-2"><g class="cls-3"><path class="cls-4" d="M1009.7,37l-79,220.47c-8.66,25-33.67,66.8-94.83,66.8H0l89.34,91.44H906.17c61.17,0,86.17-41.78,94.83-66.8l79-220.47Z"/><path class="cls-5" d="M835.87,324.27c61.16,0,86.17-41.78,94.83-66.8L1009.7,37H173.83c-61,0-85.69,41.49-94.83,66.81L0,324.27Z"/><path class="cls-6" d="M173.83,63.2c-28.7,0-56.88,12.36-70.16,49.44L37.22,298.07H835.87c28.7,0,56.88-12.36,70.17-49.44L972.48,63.2Z"/><path class="cls-7" d="M918.44,297.68a13.47,13.47,0,1,0,13.44,13.43,13.32,13.32,0,0,0-13.44-13.43m0,24.25a10.78,10.78,0,1,1,10.75-10.82,10.6,10.6,0,0,1-10.75,10.82"/><path class="cls-5" d="M912.83,304.17h5.93a5.18,5.18,0,0,1,3.83,1.4,4.37,4.37,0,0,1,1.1,3v0a4.16,4.16,0,0,1-3.16,4.24l3.57,5.29h-2.74l-3.27-4.87h-2.92v4.87h-2.34Zm5.76,6.94c1.66,0,2.73-.92,2.73-2.34v0c0-1.5-1-2.32-2.75-2.32h-3.4v4.7Z"/><path class="cls-8" d="M871.48,148.94H915l22-60.89a66.67,66.67,0,0,0-11.74-3.36,164.13,164.13,0,0,0-33.39-3.22c-44.45,0-55.08,12-68.89,51.31-11.11,31.58-4.22,42.83,10.22,57.23,10,10,18,15.91,11.71,32.07l-8,20.36c-1.86,4.79-3.61,7.05-6.69,7.05-4.75,0-5-2.87-2.93-8.25L839.53,209h-43.1L772.8,273.66s6.08,1.58,14.79,3a192.64,192.64,0,0,0,32.33,3c44.66,0,53.68-12.53,66.51-49,11.73-33.21,7.69-46.53-10-64.11-12.09-12-15.19-17.07-10.42-30.16l5-13.68c1.94-5.33,3.55-7,7.33-7,3.06,0,4.56,1.81,2.57,7.37Zm-89.23,44.63a25.38,25.38,0,0,0-5-7.86,17.1,17.1,0,0,0,2.67-1,43.65,43.65,0,0,0,24.55-25.55l10.48-28.65c10.32-28.23-.5-46.36-27.37-46.39H736L665.77,276.88h43.05l28.94-80.08.46-.05c5,0,6.57,5.3,3.08,15.76l-21.88,64.37h42.19l20.3-58.5c3.84-11,2.55-19.25.34-24.81m-9.07-65.24-10,27.95c-2.56,7-6,10.54-11.74,10.55h-3l18.16-49.45,1.52,0c5.51,0,8.14,2.53,5.07,11M641.91,84.15H595.73l-41.39,58.59,22.72-58.59H531.54L461.31,276.88h45.92l22.8-68-1.27,68h44.73L571.25,180ZM437.23,190.61,418.74,241.1c-2,5.3-3.3,8.29-8.09,8.33-4.36,0-3.75-3.39-2.24-7.6L451.63,123c2-5.56,3.41-7.49,8-7.48,3.53,0,3.89,2.51,1.92,7.93l-15.9,43.45,43.1,0,28.63-78.63a61.15,61.15,0,0,0-11-3.15C499.08,83.55,488,82,472.74,82c-44.09,0-53.37,9.55-65.91,44.06L366.46,237.25c-9,24.74-1.88,42.57,35.5,42.55,40.14,0,50.4-12.8,59.33-37.33l18.85-51.87ZM361.87,84.15,291.71,276.88H339.4L409.48,84.15Zm-48.68,0-31.43,90.73,8.56-90.73H241.44L171,276.88h34.53l32.24-90.32-8.41,90.32H277.9L347.5,84.15ZM167.28,166.52c-12.07-12.05-15.2-17.14-10.42-30.17l5-13.66c2-5.36,3.61-7,7.36-7,3.07.07,4.61,1.8,2.59,7.39L162.41,149l43.46,0,21.9-60.91a70.14,70.14,0,0,0-11.67-3.33,156.17,156.17,0,0,0-33.38-3.21c-44.43,0-55,11.93-68.87,51.25-11.17,31.56-4.23,42.83,10.2,57.21,10,10,18,15.94,11.7,32.08l-8,20.42c-1.87,4.78-3.6,7-6.72,7-4.71,0-5-2.83-2.92-8.21l12.24-32.23-43.13,0L63.63,273.66s6.1,1.6,14.76,3.07a194.92,194.92,0,0,0,32.36,3c44.74,0,53.71-12.53,66.56-49.08,11.72-33.16,7.71-46.47-10-64.1m485.35,29.33h26.15l12-32.78-26.24,0,16.62-46.4,33.54,0L727,84.15H647.52L577.16,276.88H656.6L668.06,245H634.68Z"/><path class="cls-9" d="M798.76,212.35,777.2,271.28l2.78.61,21.84-59.54Zm82.86-100c-.6,0-1.09,0-1.62.08,5.58.7,6.53,5.69,4.57,10.86l-8.31,22.33h3l8.26-22.28c2.16-5.67.87-11-5.94-11M846,194.91c-20.6-21.15-28.61-27.52-16.82-61.06,13.26-37.77,22.7-48.73,64-49l-1.26,0c-42.8,0-52.36,10.73-65.79,49.09-11.77,33.51-3.8,39.88,16.82,61,8.36,8.57,9.71,16.1,5.06,28.38l-7,18.64c-2.38,6.15-4.56,10.17-9.4,10.82a12.27,12.27,0,0,0,1.62.06c5.81,0,8.21-4.14,10.76-10.89l7-18.62c4.63-12.31,3.25-19.8-5.07-28.37M738.31,87.49,670.54,273.54h3l67.79-186Zm2.35,106h-2.23c9.75.42,9.67,9.83,5.84,21L724.1,273.54h3l20.16-59.08c3.92-11.47,3.89-21.08-6.63-21m30.45-79.41-3,0c7.65,0,12.11,4.61,8.21,15.42l-10,27.95c-2.87,8-7.33,12.75-14.81,12.77h3c7.48,0,11.94-4.79,14.82-12.75l10-28c3.9-10.78-.66-15.39-8.23-15.39m-238,85.37-.94,74.11h3.06l1-83.25ZM597.48,87.49l-47.87,66.87-3.48,9.07,54.33-75.94ZM466.07,273.54h3l67.77-186h-3Zm-3.41-161.42c-.58,0-1.14,0-1.7.12,5.33.68,6.08,5.48,4.14,10.85l-14.71,40.48,3.06,0,14.68-40.44c2.1-5.76,1-11-5.47-11M421.84,242.25c-2,5.28-3.95,9.73-9.65,10.35a10.5,10.5,0,0,0,1.44.1c6.93.05,9.1-4.67,11.21-10.42l17.75-48.4-3,0Zm-11.91-115L369.59,238.39c-8.18,22.55-2.74,38.1,32.37,38.09h1.66c-33.87-.4-39.08-15.8-31-38.15L413,127.24c11.92-32.82,19.87-41.69,61.18-41.88h-1.44c-42.69,0-50.69,8.66-62.81,41.89M296.46,273.54h3l67.71-186h-3Zm-63.34,0h3l9.48-108.83-4,10.93Zm-57.36,0,3,0,68.05-186h-3.05Zm139.78-186L280.33,187.1l-1.09,11.55L318.58,87.49ZM89.61,212.35,68,271.28l2.91.69,21.71-59.59Zm82.84-100a10.37,10.37,0,0,0-1.55.14c5.55.68,6.49,5.62,4.54,10.82l-8.3,22.33,3,0,8.28-22.33c2.1-5.63.87-11-6-11M117,133.86c-11.75,33.51-3.75,39.95,16.83,61,8.34,8.57,9.7,16.12,5.09,28.43l-7,18.59c-2.4,6.22-4.57,10.23-9.41,10.84a12.27,12.27,0,0,0,1.62.06c5.81,0,8.27-4.1,10.79-10.92l7-18.59c4.65-12.31,3.27-19.8-5.06-28.4-20.64-21.09-28.64-27.56-16.82-61,13.23-37.76,22.69-48.72,64-49l-1.27,0c-42.76,0-52.34,10.77-65.77,49.05m465,139.68h3l67.89-186h-3Z"/></g></g></g></svg>